<svg width="200" height="200" viewBox="0 0 200 200" fill="none" xmlns="http://www.w3.org/2000/svg">
<g clip-path="url(#clip0_1_405)">
<path d="M35.4167 1.61203e-05H164.583C169.236 -0.00448106 173.843 0.932018 178.142 2.75592C182.441 4.57981 186.347 7.25531 189.636 10.6293C192.926 14.0032 195.535 18.0094 197.313 22.4186C199.091 26.8277 200.004 31.5533 200 36.3248V163.675C200.004 168.447 199.091 173.172 197.313 177.581C195.535 181.991 192.926 185.997 189.636 189.371C186.347 192.745 182.441 195.42 178.142 197.244C173.843 199.068 169.236 200.004 164.583 200H35.4167C30.7645 200.004 26.157 199.068 21.8581 197.244C17.5592 195.42 13.6532 192.745 10.3635 189.371C7.07392 185.997 4.46532 181.991 2.68702 177.581C0.908717 173.172 -0.00436903 168.447 1.57173e-05 163.675V36.3248C-0.00436903 31.5533 0.908717 26.8277 2.68702 22.4186C4.46532 18.0094 7.07392 14.0032 10.3635 10.6293C13.6532 7.25531 17.5592 4.57981 21.8581 2.75592C26.157 0.932018 30.7645 -0.00448106 35.4167 1.61203e-05Z" fill="#F7DF1E"/>
<path d="M115.689 118.492C119.717 125.07 124.959 129.905 134.229 129.905C142.016 129.905 146.99 126.013 146.99 120.635C146.99 114.19 141.879 111.908 133.308 108.159L128.61 106.143C115.048 100.365 106.038 93.127 106.038 77.8254C106.038 63.7302 116.778 53 133.562 53C145.511 53 154.102 57.1587 160.292 68.0476L145.657 77.4444C142.435 71.6667 138.959 69.3905 133.562 69.3905C128.057 69.3905 124.568 72.8825 124.568 77.4444C124.568 83.0825 128.06 85.3651 136.124 88.8571L140.822 90.8698C156.79 97.7175 165.806 104.698 165.806 120.394C165.806 137.314 152.514 146.584 134.663 146.584C117.21 146.584 105.933 138.267 100.416 127.365L115.689 118.492ZM49.2984 120.121C52.2508 125.359 54.9365 129.787 61.3937 129.787C67.5683 129.787 71.4635 127.371 71.4635 117.978V54.073H90.2571V118.232C90.2571 137.692 78.8476 146.549 62.1937 146.549C47.146 146.549 38.4317 138.762 34 129.383L49.2984 120.121Z" fill="black"/>
</g>
<defs>
<clipPath id="clip0_1_405">
<rect width="200" height="200" fill="white"/>
</clipPath>
</defs>
</svg>
