<svg width="40" height="41" viewBox="0 0 40 41" fill="none" xmlns="http://www.w3.org/2000/svg">
<path fill-rule="evenodd" clip-rule="evenodd" d="M6 10.4804C6 9.41485 6.42143 8.39299 7.17157 7.63957C7.92172 6.88615 8.93913 6.46288 10 6.46288H30C31.0609 6.46288 32.0783 6.88615 32.8284 7.63957C33.5786 8.39299 34 9.41485 34 10.4804V26.5502C34 27.6157 33.5786 28.6376 32.8284 29.391C32.0783 30.1444 31.0609 30.5677 30 30.5677H25.56L25.806 31.55L27.414 33.165C27.6936 33.4459 27.884 33.8038 27.9612 34.1934C28.0383 34.583 27.9987 34.9868 27.8474 35.3538C27.696 35.7208 27.4397 36.0345 27.1109 36.2552C26.7821 36.4759 26.3955 36.5938 26 36.5939H14C13.6045 36.5938 13.2179 36.4759 12.8891 36.2552C12.5603 36.0345 12.304 35.7208 12.1526 35.3538C12.0013 34.9868 11.9617 34.583 12.0388 34.1934C12.116 33.8038 12.3064 33.4459 12.586 33.165L14.194 31.55L14.44 30.5677H10C8.93913 30.5677 7.92172 30.1444 7.17157 29.391C6.42143 28.6376 6 27.6157 6 26.5502V10.4804ZM17.542 24.5415H10V10.4804H30V24.5415H17.542Z" fill="#F6F6F6"/>
</svg>
